<?xml version="1.0" encoding="iso-8859-1"?>
<!-- Generator: Adobe Illustrator 19.0.0, SVG Export Plug-In . SVG Version: 6.00 Build 0)  -->
<svg version="1.1" id="Layer_1" xmlns="http://www.w3.org/2000/svg" xmlns:xlink="http://www.w3.org/1999/xlink" x="0px" y="0px"
	 viewBox="0 0 512 512" style="enable-background:new 0 0 512 512;" xml:space="preserve">
<circle style="fill:#D8D9DD;" cx="255.999" cy="255.998" r="255.998"/>
<path style="fill:#B7B9C0;" d="M255.999,0c141.385,0,256.001,114.617,256.001,256.002S397.385,512,255.999,512
	C255.999,308.381,255.999,142.181,255.999,0z"/>
<circle style="fill:#9B9DA6;" cx="352.11" cy="138.239" r="33.215"/>
<g>
	<circle style="fill:#B7B9C0;" cx="96.901" cy="236.309" r="33.215"/>
	<path style="fill:#B7B9C0;" d="M175.665,105.026c43.503,0,78.768-35.265,78.768-78.768c0-9.179-1.575-17.989-4.461-26.18
		c-55.835,1.29-107.242,20.464-148.738,52.007C111.926,82.901,141.209,105.026,175.665,105.026z"/>
</g>
<path style="fill:#9B9DA6;" d="M477.976,248.646c-58.614,0-106.13,47.517-106.13,106.13c0,39.748,21.853,74.384,54.197,92.569
	c52.728-46.891,85.956-115.233,85.956-191.345l0,0C511.998,255.403,489.872,248.646,477.976,248.646z"/>
<path style="fill:#B7B9C0;" d="M256,339.397c-9.757-8.666-22.596-13.937-36.672-13.937c-30.517,0-55.258,24.739-55.258,55.257
	c0,30.517,24.739,55.257,55.258,55.257c14.075,0,26.914-5.271,36.672-13.937c11.396-10.122,18.585-24.878,18.585-41.319
	C274.585,364.276,267.397,349.519,256,339.397z"/>
<path style="fill:#9B9DA6;" d="M256,339.397v82.64c11.396-10.122,18.585-24.878,18.585-41.319
	C274.585,364.276,267.397,349.519,256,339.397z"/>
<g>
</g>
<g>
</g>
<g>
</g>
<g>
</g>
<g>
</g>
<g>
</g>
<g>
</g>
<g>
</g>
<g>
</g>
<g>
</g>
<g>
</g>
<g>
</g>
<g>
</g>
<g>
</g>
<g>
</g>
</svg>
